<mxfile host="65bd71144e" scale="2" border="0">
    <diagram id="2O3FdyoxTxe1F7Micqbp" name="Page-1">
        <mxGraphModel dx="1374" dy="683" grid="1" gridSize="10" guides="1" tooltips="1" connect="1" arrows="1" fold="1" page="1" pageScale="1" pageWidth="850" pageHeight="1100" math="0" shadow="0">
            <root>
                <mxCell id="0"/>
                <mxCell id="1" parent="0"/>
                <mxCell id="2" value="Promise" style="rounded=0;whiteSpace=wrap;html=1;" parent="1" vertex="1">
                    <mxGeometry x="200" y="160" width="80" height="40" as="geometry"/>
                </mxCell>
                <mxCell id="4" style="edgeStyle=none;html=1;entryX=0.5;entryY=0;entryDx=0;entryDy=0;fontSize=6;endArrow=none;endFill=0;" parent="1" source="3" target="2" edge="1">
                    <mxGeometry relative="1" as="geometry"/>
                </mxCell>
                <mxCell id="3" value="&lt;p style=&quot;line-height: 100%; font-size: 6px;&quot;&gt;&lt;font style=&quot;font-size: 6px;&quot;&gt;Description&lt;/font&gt;&lt;/p&gt;" style="ellipse;whiteSpace=wrap;html=1;align=center;rotation=-45;verticalAlign=middle;horizontal=1;fontSize=6;spacing=0;" parent="1" vertex="1">
                    <mxGeometry x="220" y="120" width="40" height="20" as="geometry"/>
                </mxCell>
                <mxCell id="15" value="1" style="edgeStyle=none;shape=connector;rounded=1;html=1;entryX=0;entryY=0.5;entryDx=0;entryDy=0;labelBackgroundColor=default;strokeColor=default;fontFamily=Helvetica;fontSize=8;fontColor=default;endArrow=none;endFill=0;" parent="1" edge="1">
                    <mxGeometry y="10" relative="1" as="geometry">
                        <mxPoint x="560" y="180" as="sourcePoint"/>
                        <mxPoint x="580" y="180" as="targetPoint"/>
                        <mxPoint as="offset"/>
                    </mxGeometry>
                </mxCell>
                <mxCell id="26" value="0..N" style="edgeStyle=none;shape=connector;rounded=1;html=1;labelBackgroundColor=default;strokeColor=default;fontFamily=Helvetica;fontSize=8;fontColor=default;endArrow=none;endFill=0;" parent="1" source="5" target="25" edge="1">
                    <mxGeometry y="-10" relative="1" as="geometry">
                        <mxPoint as="offset"/>
                    </mxGeometry>
                </mxCell>
                <mxCell id="39" value="0..N" style="edgeStyle=none;shape=connector;rounded=1;html=1;labelBackgroundColor=default;strokeColor=default;fontFamily=Helvetica;fontSize=7;fontColor=default;endArrow=none;endFill=0;" parent="1" source="5" target="38" edge="1">
                    <mxGeometry y="10" relative="1" as="geometry">
                        <mxPoint as="offset"/>
                    </mxGeometry>
                </mxCell>
                <mxCell id="5" value="Sacrifice" style="rounded=0;whiteSpace=wrap;html=1;fontFamily=Helvetica;fontSize=12;fontColor=default;" parent="1" vertex="1">
                    <mxGeometry x="480" y="160" width="80" height="40" as="geometry"/>
                </mxCell>
                <mxCell id="9" style="edgeStyle=none;shape=connector;rounded=1;html=1;entryX=0.5;entryY=0;entryDx=0;entryDy=0;labelBackgroundColor=default;strokeColor=default;fontFamily=Helvetica;fontSize=12;fontColor=default;endArrow=none;endFill=0;" parent="1" source="6" target="5" edge="1">
                    <mxGeometry relative="1" as="geometry"/>
                </mxCell>
                <mxCell id="6" value="&lt;p style=&quot;line-height: 100%; font-size: 6px;&quot;&gt;&lt;font style=&quot;font-size: 6px;&quot;&gt;Time&lt;/font&gt;&lt;/p&gt;" style="ellipse;whiteSpace=wrap;html=1;align=center;rotation=-45;verticalAlign=middle;horizontal=1;fontSize=6;spacing=0;" parent="1" vertex="1">
                    <mxGeometry x="423" y="120" width="40" height="20" as="geometry"/>
                </mxCell>
                <mxCell id="10" style="edgeStyle=none;shape=connector;rounded=1;html=1;labelBackgroundColor=default;strokeColor=default;fontFamily=Helvetica;fontSize=12;fontColor=default;endArrow=none;endFill=0;" parent="1" source="7" edge="1">
                    <mxGeometry relative="1" as="geometry">
                        <mxPoint x="520" y="160" as="targetPoint"/>
                    </mxGeometry>
                </mxCell>
                <mxCell id="7" value="&lt;p style=&quot;line-height: 100%; font-size: 6px;&quot;&gt;&lt;font style=&quot;font-size: 6px;&quot;&gt;Place&lt;/font&gt;&lt;/p&gt;" style="ellipse;whiteSpace=wrap;html=1;align=center;rotation=-45;verticalAlign=middle;horizontal=1;fontSize=6;spacing=0;" parent="1" vertex="1">
                    <mxGeometry x="453" y="120" width="40" height="20" as="geometry"/>
                </mxCell>
                <mxCell id="11" style="edgeStyle=none;shape=connector;rounded=1;html=1;entryX=0.5;entryY=0;entryDx=0;entryDy=0;labelBackgroundColor=default;strokeColor=default;fontFamily=Helvetica;fontSize=12;fontColor=default;endArrow=none;endFill=0;" parent="1" source="8" target="5" edge="1">
                    <mxGeometry relative="1" as="geometry"/>
                </mxCell>
                <mxCell id="8" value="&lt;p style=&quot;line-height: 100%; font-size: 6px;&quot;&gt;&lt;u&gt;SacrificeID&lt;/u&gt;&lt;/p&gt;" style="ellipse;whiteSpace=wrap;html=1;align=center;rotation=-45;verticalAlign=middle;horizontal=1;fontSize=6;spacing=0;" parent="1" vertex="1">
                    <mxGeometry x="482.27" y="118.23" width="45" height="20" as="geometry"/>
                </mxCell>
                <mxCell id="12" value="SacrificeItems" style="rounded=0;whiteSpace=wrap;html=1;fontFamily=Helvetica;fontSize=12;fontColor=default;" parent="1" vertex="1">
                    <mxGeometry x="640" y="160" width="80" height="40" as="geometry"/>
                </mxCell>
                <mxCell id="16" value="1..N" style="edgeStyle=none;shape=connector;rounded=1;html=1;labelBackgroundColor=default;strokeColor=default;fontFamily=Helvetica;fontSize=8;fontColor=default;endArrow=none;endFill=0;" parent="1" source="14" target="12" edge="1">
                    <mxGeometry y="10" relative="1" as="geometry">
                        <mxPoint as="offset"/>
                    </mxGeometry>
                </mxCell>
                <mxCell id="14" value="Contains" style="rhombus;whiteSpace=wrap;html=1;fontFamily=Helvetica;fontSize=8;fontColor=default;" parent="1" vertex="1">
                    <mxGeometry x="580" y="160" width="40" height="40" as="geometry"/>
                </mxCell>
                <mxCell id="19" style="edgeStyle=none;shape=connector;rounded=1;html=1;entryX=0.5;entryY=0;entryDx=0;entryDy=0;labelBackgroundColor=default;strokeColor=default;fontFamily=Helvetica;fontSize=8;fontColor=default;endArrow=none;endFill=0;" parent="1" source="17" target="12" edge="1">
                    <mxGeometry relative="1" as="geometry"/>
                </mxCell>
                <mxCell id="17" value="&lt;p style=&quot;line-height: 100%; font-size: 6px;&quot;&gt;&lt;u&gt;SacrificeID&lt;/u&gt;&lt;/p&gt;" style="ellipse;whiteSpace=wrap;html=1;align=center;rotation=-45;verticalAlign=middle;horizontal=1;fontSize=6;spacing=0;" parent="1" vertex="1">
                    <mxGeometry x="640" y="120.00000000000001" width="45" height="20" as="geometry"/>
                </mxCell>
                <mxCell id="20" style="edgeStyle=none;shape=connector;rounded=1;html=1;entryX=0.5;entryY=0;entryDx=0;entryDy=0;labelBackgroundColor=default;strokeColor=default;fontFamily=Helvetica;fontSize=8;fontColor=default;endArrow=none;endFill=0;" parent="1" source="18" target="12" edge="1">
                    <mxGeometry relative="1" as="geometry"/>
                </mxCell>
                <mxCell id="18" value="&lt;p style=&quot;line-height: 100%; font-size: 6px;&quot;&gt;&lt;u&gt;Item&lt;/u&gt;&lt;/p&gt;" style="ellipse;whiteSpace=wrap;html=1;align=center;rotation=-45;verticalAlign=middle;horizontal=1;fontSize=6;spacing=0;" parent="1" vertex="1">
                    <mxGeometry x="675" y="118.23" width="45" height="20" as="geometry"/>
                </mxCell>
                <mxCell id="23" style="edgeStyle=none;shape=connector;rounded=1;html=1;entryX=0.5;entryY=0;entryDx=0;entryDy=0;labelBackgroundColor=default;strokeColor=default;fontFamily=Helvetica;fontSize=8;fontColor=default;endArrow=none;endFill=0;" parent="1" source="21" target="5" edge="1">
                    <mxGeometry relative="1" as="geometry"/>
                </mxCell>
                <mxCell id="21" value="&lt;p style=&quot;line-height: 100%; font-size: 6px;&quot;&gt;&lt;span&gt;CategoryID&lt;/span&gt;&lt;/p&gt;" style="ellipse;whiteSpace=wrap;html=1;align=center;rotation=-45;verticalAlign=middle;horizontal=1;fontSize=6;spacing=0;fontStyle=0" parent="1" vertex="1">
                    <mxGeometry x="512.27" y="118.23000000000002" width="45" height="20" as="geometry"/>
                </mxCell>
                <mxCell id="24" value="Sacrifice-Categories" style="rounded=0;whiteSpace=wrap;html=1;fontFamily=Helvetica;fontSize=12;fontColor=default;" parent="1" vertex="1">
                    <mxGeometry x="320" y="160" width="80" height="40" as="geometry"/>
                </mxCell>
                <mxCell id="28" value="1" style="edgeStyle=none;shape=connector;rounded=1;html=1;labelBackgroundColor=default;strokeColor=default;fontFamily=Helvetica;fontSize=8;fontColor=default;endArrow=none;endFill=0;" parent="1" source="25" target="24" edge="1">
                    <mxGeometry y="-10" relative="1" as="geometry">
                        <mxPoint as="offset"/>
                    </mxGeometry>
                </mxCell>
                <mxCell id="25" value="Is one of" style="rhombus;whiteSpace=wrap;html=1;fontFamily=Helvetica;fontSize=8;fontColor=default;" parent="1" vertex="1">
                    <mxGeometry x="420" y="160" width="40" height="40" as="geometry"/>
                </mxCell>
                <mxCell id="30" style="edgeStyle=none;shape=connector;rounded=1;html=1;entryX=0.5;entryY=0;entryDx=0;entryDy=0;labelBackgroundColor=default;strokeColor=default;fontFamily=Helvetica;fontSize=8;fontColor=default;endArrow=none;endFill=0;" parent="1" source="29" target="24" edge="1">
                    <mxGeometry relative="1" as="geometry"/>
                </mxCell>
                <mxCell id="29" value="&lt;p style=&quot;line-height: 100%; font-size: 6px;&quot;&gt;&lt;span&gt;&lt;u&gt;CategoryID&lt;/u&gt;&lt;/span&gt;&lt;/p&gt;" style="ellipse;whiteSpace=wrap;html=1;align=center;rotation=-45;verticalAlign=middle;horizontal=1;fontSize=6;spacing=0;fontStyle=0" parent="1" vertex="1">
                    <mxGeometry x="310.27" y="118.23000000000002" width="45" height="20" as="geometry"/>
                </mxCell>
                <mxCell id="32" style="edgeStyle=none;shape=connector;rounded=1;html=1;entryX=0.5;entryY=0;entryDx=0;entryDy=0;labelBackgroundColor=default;strokeColor=default;fontFamily=Helvetica;fontSize=8;fontColor=default;endArrow=none;endFill=0;" parent="1" source="31" target="24" edge="1">
                    <mxGeometry relative="1" as="geometry"/>
                </mxCell>
                <mxCell id="31" value="&lt;p style=&quot;line-height: 100%; font-size: 6px;&quot;&gt;&lt;span&gt;&lt;span&gt;Attribute&lt;/span&gt;&lt;/span&gt;&lt;/p&gt;" style="ellipse;whiteSpace=wrap;html=1;align=center;rotation=-45;verticalAlign=middle;horizontal=1;fontSize=6;spacing=0;fontStyle=0" parent="1" vertex="1">
                    <mxGeometry x="364.27" y="118.23000000000002" width="45" height="20" as="geometry"/>
                </mxCell>
                <mxCell id="34" style="edgeStyle=none;shape=connector;rounded=1;html=1;entryX=0.5;entryY=0;entryDx=0;entryDy=0;labelBackgroundColor=default;strokeColor=default;fontFamily=Helvetica;fontSize=8;fontColor=default;endArrow=none;endFill=0;" parent="1" source="33" target="24" edge="1">
                    <mxGeometry relative="1" as="geometry"/>
                </mxCell>
                <mxCell id="33" value="&lt;p style=&quot;line-height: 100%; font-size: 6px;&quot;&gt;&lt;span&gt;&lt;span&gt;Name&lt;/span&gt;&lt;/span&gt;&lt;/p&gt;" style="ellipse;whiteSpace=wrap;html=1;align=center;rotation=-45;verticalAlign=middle;horizontal=1;fontSize=6;spacing=0;fontStyle=0" parent="1" vertex="1">
                    <mxGeometry x="337.27" y="118.23000000000002" width="45" height="20" as="geometry"/>
                </mxCell>
                <mxCell id="36" style="edgeStyle=none;shape=connector;rounded=1;html=1;entryX=0.5;entryY=0;entryDx=0;entryDy=0;labelBackgroundColor=default;strokeColor=default;fontFamily=Helvetica;fontSize=8;fontColor=default;endArrow=none;endFill=0;" parent="1" source="35" target="5" edge="1">
                    <mxGeometry relative="1" as="geometry"/>
                </mxCell>
                <mxCell id="35" value="&lt;p style=&quot;line-height: 100%; font-size: 6px;&quot;&gt;&lt;span&gt;Value&lt;/span&gt;&lt;/p&gt;" style="ellipse;whiteSpace=wrap;html=1;align=center;rotation=-45;verticalAlign=middle;horizontal=1;fontSize=6;spacing=0;fontStyle=0" parent="1" vertex="1">
                    <mxGeometry x="542.27" y="118.23000000000002" width="45" height="20" as="geometry"/>
                </mxCell>
                <mxCell id="37" value="Priest" style="rounded=0;whiteSpace=wrap;html=1;fontFamily=Helvetica;fontSize=12;fontColor=default;" parent="1" vertex="1">
                    <mxGeometry x="640" y="280" width="80" height="40" as="geometry"/>
                </mxCell>
                <mxCell id="40" value="0..1" style="edgeStyle=none;shape=connector;rounded=1;html=1;labelBackgroundColor=default;strokeColor=default;fontFamily=Helvetica;fontSize=7;fontColor=default;endArrow=none;endFill=0;" parent="1" source="38" target="37" edge="1">
                    <mxGeometry x="0.0089" y="10" relative="1" as="geometry">
                        <mxPoint as="offset"/>
                    </mxGeometry>
                </mxCell>
                <mxCell id="38" value="Precided over by" style="rhombus;whiteSpace=wrap;html=1;fontFamily=Helvetica;fontSize=7;fontColor=default;" parent="1" vertex="1">
                    <mxGeometry x="580" y="220" width="40" height="40" as="geometry"/>
                </mxCell>
                <mxCell id="45" value="Attack" style="rounded=0;whiteSpace=wrap;html=1;fontFamily=Helvetica;fontSize=12;fontColor=default;" parent="1" vertex="1">
                    <mxGeometry x="360" y="280" width="80" height="40" as="geometry"/>
                </mxCell>
                <mxCell id="48" value="1..N" style="edgeStyle=none;shape=connector;rounded=1;html=1;labelBackgroundColor=default;strokeColor=default;fontFamily=Helvetica;fontSize=7;fontColor=default;endArrow=none;endFill=0;" parent="1" source="46" target="47" edge="1">
                    <mxGeometry x="-0.0133" y="10" relative="1" as="geometry">
                        <mxPoint as="offset"/>
                    </mxGeometry>
                </mxCell>
                <mxCell id="52" style="edgeStyle=none;shape=connector;rounded=1;html=1;labelBackgroundColor=default;strokeColor=default;fontFamily=Helvetica;fontSize=7;fontColor=default;endArrow=none;endFill=0;exitX=0.5;exitY=0;exitDx=0;exitDy=0;" parent="1" source="46" target="51" edge="1">
                    <mxGeometry relative="1" as="geometry"/>
                </mxCell>
                <mxCell id="46" value="Victim" style="rounded=0;whiteSpace=wrap;html=1;fontFamily=Helvetica;fontSize=12;fontColor=default;" parent="1" vertex="1">
                    <mxGeometry x="200" y="280" width="80" height="40" as="geometry"/>
                </mxCell>
                <mxCell id="49" value="1" style="edgeStyle=none;shape=connector;rounded=1;html=1;labelBackgroundColor=default;strokeColor=default;fontFamily=Helvetica;fontSize=7;fontColor=default;endArrow=none;endFill=0;" parent="1" source="47" target="45" edge="1">
                    <mxGeometry x="-0.0137" y="10" relative="1" as="geometry">
                        <mxPoint as="offset"/>
                    </mxGeometry>
                </mxCell>
                <mxCell id="47" value="of" style="rhombus;whiteSpace=wrap;html=1;fontFamily=Helvetica;fontSize=8;fontColor=default;" parent="1" vertex="1">
                    <mxGeometry x="300.27" y="280" width="40" height="40" as="geometry"/>
                </mxCell>
                <mxCell id="51" value="&lt;p style=&quot;line-height: 100%; font-size: 6px;&quot;&gt;&lt;span&gt;Species&lt;/span&gt;&lt;/p&gt;" style="ellipse;whiteSpace=wrap;html=1;align=center;rotation=-45;verticalAlign=middle;horizontal=1;fontSize=6;spacing=0;fontStyle=0" parent="1" vertex="1">
                    <mxGeometry x="186.99999999999997" y="240" width="45" height="20" as="geometry"/>
                </mxCell>
                <mxCell id="54" style="edgeStyle=none;shape=connector;rounded=1;html=1;entryX=0.5;entryY=0;entryDx=0;entryDy=0;labelBackgroundColor=default;strokeColor=default;fontFamily=Helvetica;fontSize=7;fontColor=default;endArrow=none;endFill=0;" parent="1" source="53" target="45" edge="1">
                    <mxGeometry relative="1" as="geometry"/>
                </mxCell>
                <mxCell id="53" value="&lt;p style=&quot;line-height: 100%; font-size: 6px;&quot;&gt;&lt;u&gt;ID&lt;/u&gt;&lt;/p&gt;" style="ellipse;whiteSpace=wrap;html=1;align=center;rotation=-45;verticalAlign=middle;horizontal=1;fontSize=6;spacing=0;fontStyle=0" parent="1" vertex="1">
                    <mxGeometry x="367.27" y="240" width="45" height="20" as="geometry"/>
                </mxCell>
                <mxCell id="57" style="edgeStyle=none;shape=connector;rounded=1;html=1;entryX=0.5;entryY=0;entryDx=0;entryDy=0;labelBackgroundColor=default;strokeColor=default;fontFamily=Helvetica;fontSize=7;fontColor=default;endArrow=none;endFill=0;" parent="1" source="55" target="5" edge="1">
                    <mxGeometry relative="1" as="geometry"/>
                </mxCell>
                <mxCell id="55" value="&lt;p style=&quot;line-height: 100%; font-size: 6px;&quot;&gt;HumanID&lt;/p&gt;" style="ellipse;whiteSpace=wrap;html=1;align=center;rotation=-45;verticalAlign=middle;horizontal=1;fontSize=6;spacing=0;fontStyle=0" parent="1" vertex="1">
                    <mxGeometry x="572.27" y="118.23000000000002" width="45" height="20" as="geometry"/>
                </mxCell>
                <mxCell id="59" value="0..N" style="edgeStyle=none;shape=connector;rounded=1;html=1;labelBackgroundColor=default;strokeColor=default;fontFamily=Helvetica;fontSize=7;fontColor=default;endArrow=none;endFill=0;" parent="1" source="62" target="5" edge="1">
                    <mxGeometry y="7" relative="1" as="geometry">
                        <mxPoint x="470" y="230" as="sourcePoint"/>
                        <mxPoint as="offset"/>
                    </mxGeometry>
                </mxCell>
                <mxCell id="60" value="0..N" style="edgeStyle=none;shape=connector;rounded=1;html=1;labelBackgroundColor=default;strokeColor=default;fontFamily=Helvetica;fontSize=7;fontColor=default;endArrow=none;endFill=0;" parent="1" source="62" target="61" edge="1">
                    <mxGeometry y="-7" relative="1" as="geometry">
                        <mxPoint x="450" y="250" as="sourcePoint"/>
                        <mxPoint as="offset"/>
                    </mxGeometry>
                </mxCell>
                <mxCell id="68" style="edgeStyle=none;shape=connector;rounded=1;html=1;labelBackgroundColor=default;strokeColor=default;fontFamily=Helvetica;fontSize=7;fontColor=default;endArrow=none;endFill=0;" parent="1" source="61" target="67" edge="1">
                    <mxGeometry relative="1" as="geometry"/>
                </mxCell>
                <mxCell id="77" value="p" style="edgeStyle=none;shape=connector;rounded=1;html=1;labelBackgroundColor=default;strokeColor=default;fontFamily=Helvetica;fontSize=7;fontColor=default;endArrow=none;endFill=0;" parent="1" source="61" target="76" edge="1">
                    <mxGeometry x="-0.2" y="10" relative="1" as="geometry">
                        <mxPoint as="offset"/>
                    </mxGeometry>
                </mxCell>
                <mxCell id="61" value="Human" style="rounded=0;whiteSpace=wrap;html=1;fontFamily=Helvetica;fontSize=12;fontColor=default;" parent="1" vertex="1">
                    <mxGeometry x="480" y="280" width="80" height="40" as="geometry"/>
                </mxCell>
                <mxCell id="62" value="Makes" style="rhombus;whiteSpace=wrap;html=1;fontFamily=Helvetica;fontSize=7;fontColor=default;" parent="1" vertex="1">
                    <mxGeometry x="500" y="220" width="40" height="40" as="geometry"/>
                </mxCell>
                <mxCell id="64" value="0..N" style="edgeStyle=none;shape=connector;rounded=1;html=1;labelBackgroundColor=default;strokeColor=default;fontFamily=Helvetica;fontSize=7;fontColor=default;endArrow=none;endFill=0;" parent="1" source="63" target="61" edge="1">
                    <mxGeometry y="-7" relative="1" as="geometry">
                        <mxPoint as="offset"/>
                    </mxGeometry>
                </mxCell>
                <mxCell id="65" value="0..N" style="edgeStyle=none;shape=connector;rounded=1;html=1;labelBackgroundColor=default;strokeColor=default;fontFamily=Helvetica;fontSize=7;fontColor=default;endArrow=none;endFill=0;" parent="1" source="63" target="45" edge="1">
                    <mxGeometry y="7" relative="1" as="geometry">
                        <mxPoint as="offset"/>
                    </mxGeometry>
                </mxCell>
                <mxCell id="63" value="Assailant in" style="rhombus;whiteSpace=wrap;html=1;fontFamily=Helvetica;fontSize=7;fontColor=default;" parent="1" vertex="1">
                    <mxGeometry x="440" y="220" width="40" height="40" as="geometry"/>
                </mxCell>
                <mxCell id="67" value="&lt;p style=&quot;line-height: 100%; font-size: 6px;&quot;&gt;&lt;u&gt;ID&lt;/u&gt;&lt;/p&gt;" style="ellipse;whiteSpace=wrap;html=1;align=center;rotation=-45;verticalAlign=middle;horizontal=1;fontSize=6;spacing=0;fontStyle=0" parent="1" vertex="1">
                    <mxGeometry x="535" y="240" width="45" height="20" as="geometry"/>
                </mxCell>
                <mxCell id="70" style="edgeStyle=none;shape=connector;rounded=1;html=1;entryX=0.5;entryY=0;entryDx=0;entryDy=0;labelBackgroundColor=default;strokeColor=default;fontFamily=Helvetica;fontSize=7;fontColor=default;endArrow=none;endFill=0;" parent="1" source="69" target="45" edge="1">
                    <mxGeometry relative="1" as="geometry"/>
                </mxCell>
                <mxCell id="69" value="&lt;p style=&quot;line-height: 100%; font-size: 6px;&quot;&gt;&lt;span&gt;&lt;u&gt;HumanID&lt;/u&gt;&lt;/span&gt;&lt;/p&gt;" style="ellipse;whiteSpace=wrap;html=1;align=center;rotation=-45;verticalAlign=middle;horizontal=1;fontSize=6;spacing=0;fontStyle=0" parent="1" vertex="1">
                    <mxGeometry x="397.27" y="240" width="45" height="20" as="geometry"/>
                </mxCell>
                <mxCell id="72" style="edgeStyle=none;shape=connector;rounded=1;html=1;entryX=0.5;entryY=0;entryDx=0;entryDy=0;labelBackgroundColor=default;strokeColor=default;fontFamily=Helvetica;fontSize=7;fontColor=default;endArrow=none;endFill=0;" parent="1" source="71" target="37" edge="1">
                    <mxGeometry relative="1" as="geometry"/>
                </mxCell>
                <mxCell id="71" value="&lt;p style=&quot;line-height: 100%; font-size: 6px;&quot;&gt;&lt;u&gt;HumanID&lt;/u&gt;&lt;/p&gt;" style="ellipse;whiteSpace=wrap;html=1;align=center;rotation=-45;verticalAlign=middle;horizontal=1;fontSize=6;spacing=0;fontStyle=0" parent="1" vertex="1">
                    <mxGeometry x="685" y="240" width="45" height="20" as="geometry"/>
                </mxCell>
                <mxCell id="78" style="edgeStyle=none;shape=connector;rounded=1;html=1;exitX=1;exitY=0.5;exitDx=0;exitDy=0;labelBackgroundColor=default;strokeColor=default;fontFamily=Helvetica;fontSize=7;fontColor=default;endArrow=none;endFill=0;" parent="1" source="76" target="37" edge="1">
                    <mxGeometry relative="1" as="geometry"/>
                </mxCell>
                <mxCell id="76" value="d" style="ellipse;whiteSpace=wrap;html=1;aspect=fixed;fontFamily=Helvetica;fontSize=7;fontColor=default;" parent="1" vertex="1">
                    <mxGeometry x="585" y="285" width="30" height="30" as="geometry"/>
                </mxCell>
                <mxCell id="79" value="" style="curved=1;endArrow=none;html=1;rounded=1;labelBackgroundColor=default;strokeColor=default;fontFamily=Helvetica;fontSize=7;fontColor=default;shape=connector;endFill=0;" parent="1" edge="1">
                    <mxGeometry width="50" height="50" relative="1" as="geometry">
                        <mxPoint x="620" y="320" as="sourcePoint"/>
                        <mxPoint x="620" y="280" as="targetPoint"/>
                        <Array as="points">
                            <mxPoint x="630" y="310"/>
                            <mxPoint x="630" y="290"/>
                        </Array>
                    </mxGeometry>
                </mxCell>
                <mxCell id="81" style="edgeStyle=none;shape=connector;rounded=1;html=1;entryX=0.5;entryY=0;entryDx=0;entryDy=0;labelBackgroundColor=default;strokeColor=default;fontFamily=Helvetica;fontSize=7;fontColor=default;endArrow=none;endFill=0;" parent="1" source="80" target="37" edge="1">
                    <mxGeometry relative="1" as="geometry"/>
                </mxCell>
                <mxCell id="80" value="&lt;p style=&quot;line-height: 100%; font-size: 6px;&quot;&gt;&lt;span&gt;God&lt;/span&gt;&lt;/p&gt;" style="ellipse;whiteSpace=wrap;html=1;align=center;rotation=-45;verticalAlign=middle;horizontal=1;fontSize=6;spacing=0;fontStyle=0" parent="1" vertex="1">
                    <mxGeometry x="655" y="240" width="45" height="20" as="geometry"/>
                </mxCell>
                <mxCell id="83" style="edgeStyle=none;shape=connector;rounded=1;html=1;entryX=0.5;entryY=0;entryDx=0;entryDy=0;labelBackgroundColor=default;strokeColor=default;fontFamily=Helvetica;fontSize=7;fontColor=default;endArrow=none;endFill=0;" parent="1" source="82" target="46" edge="1">
                    <mxGeometry relative="1" as="geometry"/>
                </mxCell>
                <mxCell id="82" value="&lt;p style=&quot;line-height: 100%; font-size: 6px;&quot;&gt;&lt;span&gt;&lt;u&gt;ID&lt;/u&gt;&lt;/span&gt;&lt;/p&gt;" style="ellipse;whiteSpace=wrap;html=1;align=center;rotation=-45;verticalAlign=middle;horizontal=1;fontSize=6;spacing=0;fontStyle=0" parent="1" vertex="1">
                    <mxGeometry x="216.99999999999997" y="240" width="45" height="20" as="geometry"/>
                </mxCell>
                <mxCell id="85" style="edgeStyle=none;shape=connector;rounded=1;html=1;entryX=0.5;entryY=0;entryDx=0;entryDy=0;labelBackgroundColor=default;strokeColor=default;fontFamily=Helvetica;fontSize=7;fontColor=default;endArrow=none;endFill=0;" parent="1" source="84" target="46" edge="1">
                    <mxGeometry relative="1" as="geometry"/>
                </mxCell>
                <mxCell id="84" value="&lt;p style=&quot;line-height: 100%; font-size: 6px;&quot;&gt;&lt;span&gt;&lt;u&gt;AttackID&lt;/u&gt;&lt;/span&gt;&lt;/p&gt;" style="ellipse;whiteSpace=wrap;html=1;align=center;rotation=-45;verticalAlign=middle;horizontal=1;fontSize=6;spacing=0;fontStyle=0" parent="1" vertex="1">
                    <mxGeometry x="247" y="240" width="45" height="20" as="geometry"/>
                </mxCell>
                <mxCell id="87" style="edgeStyle=none;shape=connector;rounded=1;html=1;exitX=0;exitY=0.5;exitDx=0;exitDy=0;entryX=0.5;entryY=0;entryDx=0;entryDy=0;labelBackgroundColor=default;strokeColor=default;fontFamily=Helvetica;fontSize=7;fontColor=default;endArrow=none;endFill=0;" parent="1" source="86" target="5" edge="1">
                    <mxGeometry relative="1" as="geometry"/>
                </mxCell>
                <mxCell id="86" value="&lt;p style=&quot;line-height: 100%; font-size: 6px;&quot;&gt;God&lt;/p&gt;" style="ellipse;whiteSpace=wrap;html=1;align=center;rotation=-45;verticalAlign=middle;horizontal=1;fontSize=6;spacing=0;fontStyle=0" parent="1" vertex="1">
                    <mxGeometry x="602.27" y="118.23000000000002" width="45" height="20" as="geometry"/>
                </mxCell>
            </root>
        </mxGraphModel>
    </diagram>
</mxfile>